<svg
  width="370"
  height="48"
  viewBox="0 0 370 48"
  fill="none"
  xmlns="http://www.w3.org/2000/svg"
>
  <path
    fill-rule="evenodd"
    clip-rule="evenodd"
    d="M339.548 0.541483L337.048 0.900213V23.0775C337.238 35.1276 337.622 45.3725 337.902 45.8442C338.518 46.8774 367.843 46.9432 368.936 45.8442C369.352 45.4268 369.332 34.0677 369.191 22.0472L368.936 0.191695L355.664 0.0534959C348.365 -0.022752 341.112 0.197415 339.548 0.541483Z"
    fill="currentColor"
  />
  <path
    d="M288.078 0.979493C285.19 1.09262 273.353 1.11065 255.921 0.730459C228.354 0.13064 192.499 -0.00261086 114.688 0.207069C103.995 0.235966 83.5126 0.179183 69.1716 0.0810979C22.9486 -0.236887 2.50359 0.36898 1.17522 2.09803C0.383863 3.12894 0.0116248 7.52975 0.000412107 15.9978C-0.0259911 36.4176 1.10946 37.3141 34.8417 43.5433C37.6966 44.0699 47.9095 45.1859 57.5368 46.0234C79.2422 47.9104 99.9716 47.1994 129.201 43.5648C147.352 41.3076 149.951 40.938 157.757 39.5035C161.95 38.7332 166.452 37.932 167.761 37.7232C170.164 37.3389 192.354 32.7229 195.89 31.8716C196.94 31.6188 203.596 30.0511 210.681 28.3888C217.766 26.7266 225.709 24.8609 228.333 24.2422C230.958 23.6226 236.973 22.082 241.7 20.8176C246.427 19.5523 253.303 17.7377 256.979 16.7833C260.655 15.8299 267.316 14.0669 271.781 12.8662C276.246 11.6655 281.617 10.2473 283.717 9.71595C285.818 9.18364 286.682 8.93536 289.69 7.96158C294.203 6.50091 295.203 6.50963 302.326 4.87265C304.552 4.36122 305.789 3.66285 306.011 2.64945C306.332 1.1829 305.701 1.23984 297.751 1.03166C291.751 0.9793 289.252 0.933529 288.078 0.979493Z"
    fill="currentColor"
  />
</svg>
