<svg
  width="374"
  height="52"
  viewBox="0 0 374 52"
  fill="none"
  xmlns="http://www.w3.org/2000/svg"
>
  <path
    fill-rule="evenodd"
    clip-rule="evenodd"
    d="M91.7043 0.826292C60.0793 1.23429 27.7713 1.88329 19.9073 2.26829C3.06632 3.09329 3.81132 2.54629 1.18632 16.0353C-0.86968 26.5983 -0.19368 36.8583 2.75232 39.8043C5.38032 42.4323 20.7893 46.7103 35.2043 48.8143C48.5843 50.7673 70.3003 51.5543 87.7043 50.7183C109.223 49.6843 127.889 48.0843 133.204 46.8183C135.404 46.2943 139.904 45.6473 143.204 45.3803C146.504 45.1123 155.279 43.9083 162.704 42.7023C170.129 41.4973 178.454 40.1583 181.204 39.7283C183.954 39.2983 190.479 38.2083 195.704 37.3063C200.929 36.4053 208.354 35.2493 212.204 34.7383C216.054 34.2283 221.004 33.3823 223.204 32.8583C225.404 32.3353 230.354 31.4333 234.204 30.8543C250.857 28.3513 267.571 25.6473 272.204 24.7063C277.922 23.5443 288.662 21.8693 296.704 20.8843C299.729 20.5133 302.756 19.8633 303.431 19.4383C304.858 18.5413 304.597 6.22729 303.121 4.80929C302.617 4.32429 284.429 3.44329 262.704 2.85029C240.979 2.25729 221.404 1.56529 219.204 1.31329C210.854 0.357291 146.997 0.113292 91.7043 0.826292ZM178.204 43.7563C177.864 44.3063 178.063 44.7563 178.645 44.7563C179.227 44.7563 179.704 44.3063 179.704 43.7563C179.704 43.2063 179.506 42.7563 179.263 42.7563C179.02 42.7563 178.544 43.2063 178.204 43.7563Z"
    fill="currentColor"
  />
  <path
    d="M352.938 1.31329C347.962 1.31329 346.169 2.45229 343.945 4.67729C341.721 6.90229 341.395 17.655 341.5 22.6773C341.676 31.0563 341.962 39.655 341.962 43.155L342.493 49.2103H347.462H355.166C361.766 49.3743 368.462 48.9013 370.489 48.9013L373.462 48.655L373.174 29.6023C372.472 9.04129 372.962 4.50002 366.687 2.08329C363.462 1.00002 363.209 1.31329 352.938 1.31329Z"
    fill="currentColor"
  />
</svg>
