<svg
  width="377"
  height="50"
  viewBox="0 0 377 50"
  fill="none"
  xmlns="http://www.w3.org/2000/svg"
>
  <path
    d="M1.22048 26.6756L1.22048 26.6756C0.677232 21.499 1.31563 17.3823 3.2171 14.039C5.11831 10.6961 8.31848 8.06261 13.0219 5.92212C22.0362 1.82034 28.0368 1.19176 58.2849 1.3555C73.7083 1.43878 97.3206 1.42065 110.759 1.31519C124.188 1.2098 154.099 1.40269 177.225 1.74392C200.355 2.0861 235.356 2.44162 255.008 2.53556C284.275 2.67534 300.251 2.9535 304.745 3.39599C304.757 3.42661 304.769 3.46568 304.783 3.51459C304.85 3.756 304.907 4.12417 304.949 4.60054C305.033 5.54555 305.05 6.8264 305.007 8.16133C304.963 9.49469 304.861 10.8659 304.708 11.9896C304.632 12.552 304.545 13.0443 304.449 13.4352C304.349 13.8427 304.252 14.0857 304.18 14.192L304.18 14.1922C304.132 14.2648 303.991 14.3977 303.709 14.5701C303.44 14.7341 303.087 14.9078 302.671 15.0787C301.838 15.4202 300.787 15.7353 299.726 15.9376C295.621 16.7196 284.855 18.6901 278.507 19.8213C276.507 20.1776 271.805 21.0538 268.058 21.7679C259.984 23.3055 248.445 25.3272 242.384 26.2647L242.384 26.2647C239.991 26.6354 237.222 27.1695 236.23 27.4585C235.306 27.7281 232.592 28.2755 230.197 28.6714C227.799 29.068 222.772 29.9609 219.024 30.6564C205.521 33.1624 200.242 34.1016 189.976 35.8273C187.1 36.3102 184.28 36.8297 182.051 37.2778C180.937 37.5018 179.968 37.7084 179.213 37.884C178.472 38.0566 177.903 38.2066 177.613 38.3195C177.158 38.4964 176.082 38.7611 174.675 39.0433C173.285 39.3222 171.615 39.6102 170.002 39.8396C164.201 40.6645 161.876 41.082 149.999 43.4256C130.357 47.3019 125.939 48.029 117.371 48.8036L117.416 49.3016L117.371 48.8036C111.325 49.3506 98.6033 49.5466 86.3432 49.4467C74.0724 49.3466 62.3398 48.9504 58.2517 48.3246C54.7659 47.7907 46.6329 46.8585 40.1749 46.2514C32.3567 45.5162 27.3806 44.8987 23.3871 43.9808C19.4079 43.0661 16.3937 41.8505 12.5062 39.9012L12.5061 39.9012C8.37418 37.8299 5.72793 36.0628 4.02636 34.0578C2.34163 32.0727 1.54926 29.8132 1.22048 26.6756ZM304.703 3.30395C304.703 3.30382 304.704 3.30501 304.706 3.30775C304.704 3.30543 304.703 3.30408 304.703 3.30395ZM340.025 6.83888L340.041 6.82342C340.061 6.80562 340.09 6.77857 340.129 6.74341C340.208 6.67306 340.326 6.57035 340.479 6.44434C340.785 6.19211 341.232 5.84772 341.787 5.48313C342.903 4.75073 344.435 3.95301 346.14 3.63915C349.534 3.0141 354.824 2.79497 359.718 2.92911C362.161 2.99607 364.493 3.15073 366.427 3.38415C368.38 3.61982 369.872 3.92993 370.673 4.28504C371.951 4.85154 372.875 5.35184 373.573 6.02138C374.258 6.67858 374.755 7.52963 375.113 8.85091C375.474 10.1854 375.686 11.98 375.806 14.5054C375.925 17.0265 375.95 20.2461 375.946 24.4192C375.942 30.3966 375.894 34.9005 375.529 38.3019C375.164 41.7118 374.487 43.9225 373.296 45.3803C372.121 46.8174 370.379 47.6011 367.676 47.9896C364.962 48.3797 361.366 48.3601 356.563 48.2593C351.627 48.1557 347.884 47.9801 345.037 47.4416C342.198 46.9043 340.321 46.018 339.053 44.5477C337.778 43.0691 337.053 40.9254 336.688 37.7259C336.323 34.5282 336.324 30.3523 336.44 24.8676C336.445 24.6323 336.449 24.3679 336.454 24.0783C336.486 22.1273 336.537 19.0267 336.931 15.8875C337.157 14.0861 337.495 12.2872 338.001 10.6983C338.506 9.11051 339.169 7.76826 340.025 6.83888Z"
    fill="currentColor"
    stroke="currentColor"
  />
</svg>
