<svg
  width="371"
  height="50"
  viewBox="0 0 371 50"
  fill="none"
  xmlns="http://www.w3.org/2000/svg"
>
  <path
    d="M252.402 0.795712C232.906 0.770275 198.18 0.535673 175.233 0.272776C152.286 0.0107773 122.605 -0.0781797 109.276 0.0750928C95.9466 0.228365 72.5222 0.329576 57.2217 0.300005C27.2319 0.241635 21.1675 0.886963 12.1225 5.09854C2.6821 9.49483 -0.928407 15.9837 0.199583 26.5272C0.887658 32.9679 3.47432 36.0358 11.7146 40.1874C19.4888 44.1051 23.8463 45.1042 39.3638 46.5284C45.7701 47.1161 53.831 48.0242 57.277 48.5467C65.4792 49.7901 104.004 49.9723 116.053 48.8242C124.579 48.0122 128.982 47.2605 148.457 43.2922C160.231 40.8933 162.526 40.4673 168.264 39.6193C171.481 39.1438 174.926 38.4302 175.92 38.0337C176.914 37.6373 182.386 36.5012 188.079 35.5111C198.262 33.7385 203.499 32.7747 216.889 30.2061C220.603 29.4936 225.585 28.5784 227.958 28.1718C230.332 27.7652 233.049 27.2009 233.997 26.917C234.945 26.6331 237.662 26.0904 240.036 25.709C246.053 24.7434 257.5 22.6681 265.509 21.0923C269.223 20.361 273.883 19.4636 275.864 19.0987C282.159 17.9383 292.835 15.9179 296.908 15.1164C299.073 14.6899 301.203 13.796 301.64 13.1298C302.617 11.6418 302.903 1.60345 301.972 1.50622C297.725 1.06235 281.805 0.833948 252.402 0.795712Z"
    fill="currentColor"
  />
  <path
    fill-rule="evenodd"
    clip-rule="evenodd"
    d="M345.082 1.01676C342.087 1.7615 341.017 2.59139 339.21 5.57486C337.925 7.69654 337.777 8.31105 337.647 8.85129C337.594 9.07072 337.544 9.2779 337.422 9.56884C337 10.5761 337 23.2201 337 23.2201C337 45.438 338.158 46.9945 354.689 47C370.756 47.0054 371.328 46.1212 370.92 21.9273C370.635 5.02039 370.239 3.38777 365.889 1.18528C362.926 -0.315058 350.83 -0.412907 345.082 1.01676Z"
    fill="currentColor"
  />
</svg>
