<svg
  width="372"
  height="52"
  viewBox="0 0 372 52"
  fill="none"
  xmlns="http://www.w3.org/2000/svg"
>
  <path
    fill-rule="evenodd"
    clip-rule="evenodd"
    d="M346.222 1.39843C339.782 5.47141 333.588 15.796 333.345 22.8592C333.157 28.3292 334.567 35.2823 336.808 39.9365C341.697 50.0904 356.279 54.3205 362.617 47.4224C370.196 39.1751 373.491 24.628 369.816 15.6332C367.406 9.73038 363.831 4.55453 360.5 2.14294C357.04 -0.362368 349.617 -0.749531 346.222 1.39843Z"
    fill="currentColor"
  />
  <path
    d="M129.817 0.251896C83.7987 -0.711332 49.9822 2.41258 24.4103 9.99236C17.8857 11.9266 7.5301 16.4142 4.79991 18.4911C-4.08432 25.249 -0.0875225 37.583 12.2774 41.5682C15.3314 42.5523 18.7667 43.7883 19.9099 44.3147C21.054 44.8411 28.5849 46.315 36.6469 47.5899C57.6083 50.9054 113.172 52.0841 145.667 49.9025C173.594 48.0278 194.652 46.2647 220.511 43.6372C231.991 42.4708 233.671 42.2879 247.163 40.74C252.143 40.1686 260.968 39.1987 266.776 38.5854C272.583 37.9711 280.958 37.0015 285.387 36.4312C289.817 35.8608 295.094 35.1994 297.116 34.9614C299.138 34.7243 301.056 33.9222 301.379 33.1796C303.5 30.5 304 22.4911 302.647 19.6741C301.595 17.4851 300.241 17.1277 284.328 14.8414C278.31 13.9771 269.583 12.6802 264.935 11.9598C260.287 11.2394 251.11 9.94983 244.541 9.09448C237.972 8.23813 228.121 6.90017 222.65 6.11978C214.133 4.90411 199.969 3.71417 165.804 1.34465C161.962 1.07781 145.768 0.58597 129.817 0.251896Z"
    fill="currentColor"
  />
</svg>
