<svg
  width="314"
  height="215"
  viewBox="0 0 314 215"
  fill="none"
  xmlns="http://www.w3.org/2000/svg"
>
  <path
    d="M207 158C207 185.614 184.614 208 157 208C129.386 208 107 185.614 107 158C107 130.386 129.386 108 157 108C184.614 108 207 130.386 207 158Z"
    fill="currentColor"
  />
  <path
    d="M7 19H307M157 157V7M207 158C207 185.614 184.614 208 157 208C129.386 208 107 185.614 107 158C107 130.386 129.386 108 157 108C184.614 108 207 130.386 207 158Z"
    stroke="currentColor"
    stroke-width="14"
    stroke-linecap="round"
  />
</svg>
