<?xml version="1.0" encoding="iso-8859-1"?>
<!-- Uploaded to: SVG Repo, www.svgrepo.com, Generator: SVG Repo Mixer Tools -->
<svg
  fill="#000000"
  version="1.1"
  id="Layer_1"
  class="calculator"
  xmlns="http://www.w3.org/2000/svg"
  xmlns:xlink="http://www.w3.org/1999/xlink"
  viewBox="0 0 500 600"
  xml:space="preserve"
>
  <style>
    .calculator .line {
      fill: none;
      stroke-linecap: round;
      stroke-miterlimit: 10;
      stroke-dasharray: 600 1200;
      stroke-dashoffset: 0;
      transition: all 200ms ease-out;
    }
    .calculator.calculated .line {
      stroke-dashoffset: -800;
    }
  </style>
  <g id="XMLID_241_">
    <g>
      <path
        fill="inherit"
        d="M 369.635 50 H 90.365 C 73.595 50 60 63.595 60 80.365 v 399.27 C 60 496.405 73.595 510 90.365 510 h 279.27 c 16.77 0 30.365 -13.595 30.365 -30.365 V 80.365 C 400 63.595 386.405 50 369.635 50 z M 108.204 393.61 v -43.196 c 0 -3.451 2.797 -6.248 6.248 -6.248 h 43.196 c 3.451 0 6.248 2.797 6.248 6.248 v 43.196 c 0 3.451 -2.797 6.248 -6.248 6.248 h -43.196 C 111.001 399.858 108.204 397.06 108.204 393.61 z M 108.204 306.61 v -43.196 c 0 -3.451 2.797 -6.248 6.248 -6.248 h 43.196 c 3.451 0 6.248 2.797 6.248 6.248 v 43.196 c 0 3.451 -2.797 6.248 -6.248 6.248 h -43.196 C 111.001 312.858 108.204 310.06 108.204 306.61 z M 308.891 471 H 151.109 c -11.046 0 -20 -8.954 -20 -20 c 0 -11.046 8.954 -20 20 -20 h 157.782 c 11.046 0 20 8.954 20 20 C 328.891 462.046 319.937 471 308.891 471 z M 208.402 344.165 h 43.196 c 3.451 0 6.248 2.797 6.248 6.248 v 43.196 c 0 3.451 -2.797 6.248 -6.248 6.248 h -43.196 c -3.451 0 -6.248 -2.797 -6.248 -6.248 v -43.196 C 202.154 346.963 204.951 344.165 208.402 344.165 z M 202.154 306.61 v -43.196 c 0 -3.451 2.797 -6.248 6.248 -6.248 h 43.196 c 3.451 0 6.248 2.797 6.248 6.248 v 43.196 c 0 3.451 -2.797 6.248 -6.248 6.248 h -43.196 C 204.951 312.858 202.154 310.06 202.154 306.61 z M 345.548 399.858 h -43.196 c -3.451 0 -6.248 -2.797 -6.248 -6.248 v -43.196 c 0 -3.451 2.797 -6.248 6.248 -6.248 h 43.196 c 3.451 0 6.248 2.797 6.248 6.248 v 43.196 h 0 C 351.796 397.061 348.999 399.858 345.548 399.858 z M 345.548 312.858 h -43.196 c -3.451 0 -6.248 -2.797 -6.248 -6.248 v -43.196 c 0 -3.451 2.797 -6.248 6.248 -6.248 h 43.196 c 3.451 0 6.248 2.797 6.248 6.248 v 43.196 h 0 C 351.796 310.061 348.999 312.858 345.548 312.858 z M 354 199.637 c 0 11.799 -9.565 21.363 -21.363 21.363 H 127.364 C 115.565 221 106 211.435 106 199.637 V 112.363 C 106 100.565 115.565 91 127.364 91 h 205.273 C 344.435 91 354 100.565 354 112.363 V 199.637 z"
      />
      <line
        class="line"
        x1="50"
        y1="50"
        x2="500"
        y2="600"
        stroke="hsl(var(--b3, var(--b2)))"
        stroke-width="150"
      />
      <line
        class="line"
        x1="50"
        y1="50"
        x2="500"
        y2="600"
        stroke="inherit"
        stroke-width="50"
      />
    </g>
  </g>
</svg>
