 <svg
     xmlns="http://www.w3.org/2000/svg"
     class="lock"
     viewBox="0 0 100 100"
     version="1.1">
    <style
       type="text/css"
       id="style2">
      .lock .lock-top{
        fill: none;
        stroke: currentColor;
        stroke-width: 12;
        stroke-linecap: round;
        stroke-miterlimit: 10;
        stroke-dasharray: 300;
        stroke-dashoffset: -40;
        transition: all 300ms ease-in-out;
      }
      .lock .lock-body {
        fill: currentColor;
      }
      .lock.locked .lock-top {
        stroke-dashoffset: 0;
      }
    </style>
    <path
       y="50"
       class="lock-top"
       d="M 72 41 V 29 C 72 17 64 9 52 9 H 47 C 35 9 27 17 27 29 V 41" />
    <path
       class="lock-body"
       d="M 19.5 99 h 60 c 2.4852 0 4.5 -2.0148 4.5 -4.5 V 43.5 c 0 -2.4852 -2.0148 -4.5 -4.5 -4.5 H 19.5 c -2.4852 0 -4.5 2.0148 -4.5 4.5 v 51 C 15 96.9852 17.0148 99 19.5 99 z M 54 70.4958 V 76.5 c 0 2.4852 -2.0148 4.5 -4.5 4.5 s -4.5 -2.0148 -4.5 -4.5 v -6.0042 c -1.8204 -1.3695 -3 -3.5472 -3 -5.9958 c 0 -4.1355 3.3645 -7.5 7.5 -7.5 s 7.5 3.3645 7.5 7.5 C 57 66.9486 55.8204 69.1263 54 70.4958 z " />
  </svg>