<?xml version="1.0" encoding="iso-8859-1"?>
<!-- Generator: Adobe Illustrator 19.0.0, SVG Export Plug-In . SVG Version: 6.00 Build 0)  -->
<svg version="1.1" id="Capa_1" xmlns="http://www.w3.org/2000/svg" xmlns:xlink="http://www.w3.org/1999/xlink" x="0px" y="0px"
	 viewBox="0 0 463 463" style="enable-background:new 0 0 463 463;" xml:space="preserve" fill="currentColor" stroke="currentColor">
<path d="M462.988,319.813c0.001-0.105,0.012-0.208,0.012-0.313c0-0.023-0.003-0.046-0.004-0.07c-0.001-0.17-0.013-0.34-0.026-0.511
	c-0.006-0.083-0.01-0.166-0.019-0.248c-0.016-0.147-0.042-0.293-0.067-0.44c-0.018-0.105-0.033-0.211-0.056-0.315
	c-0.025-0.113-0.057-0.225-0.087-0.338c-0.036-0.135-0.07-0.27-0.113-0.401c-0.028-0.086-0.063-0.172-0.094-0.258
	c-0.056-0.153-0.113-0.304-0.179-0.452c-0.01-0.023-0.017-0.047-0.028-0.071L383,141.875V119h0.5c8.547,0,15.5-6.953,15.5-15.5
	v-1.188c0-7.648-5.48-14.083-13.03-15.302L255,65.875V52.446c4.971-5.571,8-12.91,8-20.946C263,14.131,248.869,0,231.5,0
	S200,14.131,200,31.5c0,8.036,3.029,15.375,8,20.946v12.7L76.951,86.988C69.447,88.239,64,94.669,64,102.277v1.223
	c0,8.547,6.953,15.5,15.5,15.5H80v22.875L0.672,316.396c-0.011,0.023-0.018,0.048-0.028,0.071c-0.065,0.147-0.122,0.299-0.178,0.451
	c-0.032,0.086-0.066,0.172-0.095,0.259c-0.043,0.131-0.078,0.266-0.113,0.401c-0.03,0.113-0.062,0.225-0.087,0.338
	c-0.022,0.104-0.038,0.21-0.056,0.315c-0.025,0.147-0.051,0.293-0.067,0.44c-0.009,0.082-0.012,0.166-0.019,0.249
	c-0.013,0.17-0.024,0.34-0.026,0.509c0,0.024-0.004,0.047-0.004,0.07c0,0.106,0.011,0.209,0.012,0.315
	c0.004,0.084,0.003,0.169,0.01,0.253C0.489,350.916,38.735,375,87.5,375s87.011-24.084,87.478-54.932
	c0.007-0.084,0.006-0.169,0.01-0.254c0.001-0.105,0.012-0.208,0.012-0.313c0-0.023-0.003-0.046-0.004-0.07
	c-0.001-0.17-0.013-0.34-0.026-0.511c-0.006-0.083-0.01-0.166-0.019-0.248c-0.016-0.147-0.042-0.293-0.067-0.44
	c-0.018-0.105-0.033-0.211-0.056-0.315c-0.025-0.113-0.057-0.225-0.087-0.338c-0.036-0.135-0.07-0.27-0.113-0.401
	c-0.028-0.086-0.063-0.172-0.094-0.258c-0.056-0.153-0.113-0.304-0.179-0.452c-0.01-0.023-0.017-0.047-0.028-0.071L95,141.875V119
	h113v162.945c-4.765,2.647-8,7.728-8,13.555v110.486l-47.51,14.847c-9.863,3.083-16.49,12.097-16.49,22.431V455.5
	c0,4.142,3.357,7.5,7.5,7.5h176c4.143,0,7.5-3.358,7.5-7.5v-12.237c0-10.334-6.627-19.348-16.49-22.431L263,405.986V295.5
	c0-5.827-3.235-10.908-8-13.555V119h113v22.875l-79.328,174.522c-0.011,0.023-0.018,0.048-0.028,0.071
	c-0.065,0.147-0.122,0.299-0.178,0.451c-0.032,0.086-0.066,0.172-0.095,0.259c-0.043,0.131-0.078,0.266-0.113,0.401
	c-0.03,0.113-0.062,0.225-0.087,0.338c-0.022,0.104-0.038,0.21-0.056,0.315c-0.025,0.147-0.051,0.293-0.067,0.44
	c-0.009,0.082-0.012,0.166-0.019,0.249c-0.013,0.17-0.024,0.34-0.026,0.509c0,0.024-0.004,0.047-0.004,0.07
	c0,0.106,0.011,0.209,0.012,0.315c0.004,0.084,0.003,0.169,0.01,0.253C288.489,350.916,326.735,375,375.5,375
	s87.011-24.084,87.478-54.932C462.985,319.983,462.984,319.898,462.988,319.813z M87.5,161.625L155.852,312H19.148L87.5,161.625z
	 M87.5,360c-34.728,0-64.692-14.482-71.194-33h142.389C152.192,345.518,122.228,360,87.5,360z M248,295.5V404h-33V295.5
	c0-0.276,0.225-0.5,0.5-0.5h32C247.775,295,248,295.224,248,295.5z M223,280V61.825c2.706,0.76,5.555,1.175,8.5,1.175
	s5.794-0.415,8.5-1.175V280H223z M231.5,15c9.098,0,16.5,7.402,16.5,16.5S240.598,48,231.5,48S215,40.598,215,31.5
	S222.402,15,231.5,15z M79.5,104c-0.275,0-0.5-0.224-0.5-0.5v-1.223c0-0.246,0.176-0.453,0.418-0.493L208,80.354V104H79.5z
	 M312,443.263V448H151v-4.737c0-3.738,2.397-6.999,5.965-8.113l51.68-16.15h45.711l51.68,16.15
	C309.603,436.265,312,439.525,312,443.263z M255,81.07l128.579,20.749c0.244,0.039,0.421,0.247,0.421,0.494v1.188
	c0,0.276-0.225,0.5-0.5,0.5H255V81.07z M375.5,161.625L443.852,312H307.148L375.5,161.625z M375.5,360
	c-34.728,0-64.692-14.482-71.194-33h142.389C440.192,345.518,410.228,360,375.5,360z"/>
<g>
</g>
<g>
</g>
<g>
</g>
<g>
</g>
<g>
</g>
<g>
</g>
<g>
</g>
<g>
</g>
<g>
</g>
<g>
</g>
<g>
</g>
<g>
</g>
<g>
</g>
<g>
</g>
<g>
</g>
</svg>
