<?xml version="1.0" encoding="iso-8859-1"?>
<!-- Uploaded to: SVG Repo, www.svgrepo.com, Generator: SVG Repo Mixer Tools -->
<svg fill="currentColor" stroke="currentColor" height="800px" width="800px" version="1.1" id="Layer_1" xmlns="http://www.w3.org/2000/svg" xmlns:xlink="http://www.w3.org/1999/xlink" 
	 viewBox="0 0 512 512" xml:space="preserve">
<g>
	<g>
		<path d="M511.77,165.33l-5.808-25.615c-0.543-2.395-2.016-4.476-4.093-5.786c-2.079-1.31-4.594-1.741-6.985-1.198l-115.896,26.28
			c-4.988,1.131-8.114,6.092-6.983,11.079l3.761,16.583l-237.812,53.924l-3.761-16.583c-1.132-4.988-6.089-8.116-11.079-6.983
			L7.215,243.311c-4.988,1.131-8.114,6.091-6.983,11.079l5.808,25.615c0.543,2.395,2.015,4.476,4.093,5.786
			c1.49,0.94,3.204,1.426,4.939,1.426c0.684,0,1.37-0.077,2.048-0.23l192.807-43.719c-15.057,19.093-21.701,44.568-15.918,70.076
			c4.471,19.717,15.64,36.202,30.555,47.634h-34.47c-5.114,0-9.26,4.146-9.26,9.26s4.146,9.26,9.26,9.26H360.48
			c5.115,0,9.26-4.146,9.26-9.26s-4.145-9.26-9.26-9.26h-34.337c7.672-5.913,14.329-13.185,19.648-21.623
			c11.869-18.833,15.697-41.161,10.774-62.87c-5.784-25.509-22.773-45.623-44.596-56.353c0,0,193.145-43.805,193.287-43.854
			C509.966,174.948,512.863,170.157,511.77,165.33z M22.053,266.879l-1.712-7.553l97.835-22.185l1.713,7.553L22.053,266.879z
			 M338.503,280.58c3.83,16.886,0.853,34.251-8.38,48.898c-9.233,14.647-23.616,24.822-40.501,28.651
			c-34.863,7.909-69.647-14.024-77.552-48.881c-7.903-34.858,14.024-69.646,48.881-77.55c4.807-1.09,9.61-1.612,14.342-1.612
			C304.89,230.086,331.687,250.529,338.503,280.58z M393.826,182.578l-1.714-7.553l97.834-22.185l1.714,7.554L393.826,182.578z"/>
	</g>
</g>
<g>
	<g>
		<path d="M407.398,360.978h-14.326c-5.115,0-9.26,4.146-9.26,9.26s4.145,9.26,9.26,9.26h14.326c5.115,0,9.26-4.146,9.26-9.26
			S412.512,360.978,407.398,360.978z"/>
	</g>
</g>
<g>
	<g>
		<circle cx="158.484" cy="370.233" r="9.26"/>
	</g>
</g>
</svg>