<?xml version="1.0" ?>

<!-- Uploaded to: SVG Repo, www.svgrepo.com, Generator: SVG Repo Mixer Tools -->
<svg fill="currentColor" stroke="currentColor" width="800px" height="800px" viewBox="0 0 64 64" id="Layer_1" version="1.1" xml:space="preserve" xmlns="http://www.w3.org/2000/svg" xmlns:xlink="http://www.w3.org/1999/xlink">

<g>

<path d="M40.6,36h10.8c3.1,0,5.6-2.5,5.6-5.6V21h-2v9.4c0,2-1.6,3.6-3.6,3.6H12.6c-2,0-3.6-1.6-3.6-3.6V21H7v9.4   c0,3.1,2.5,5.6,5.6,5.6h10.8C13.6,39.5,6.5,49,6.5,60v1h51v-1C57.5,49,50.4,39.5,40.6,36z M8.5,59C9,46.5,19.4,36.5,32,36.5   s23,10,23.5,22.5H8.5z"/>

<path d="M43.3,41.3l-9.9,9.1C33,50.1,32.5,50,32,50c-1.7,0-3,1.3-3,3s1.3,3,3,3s3-1.3,3-3c0-0.5-0.1-1-0.4-1.4l9.1-9.9L43.3,41.3z"/>

</g>

</svg>