<?xml version="1.0" encoding="iso-8859-1"?>
<!-- Uploaded to: SVG Repo, www.svgrepo.com, Generator: SVG Repo Mixer Tools -->
<svg fill="#000000" height="800px" width="800px" version="1.1" id="Layer_1" xmlns="http://www.w3.org/2000/svg" xmlns:xlink="http://www.w3.org/1999/xlink" 
	 viewBox="0 0 512 512" xml:space="preserve">
<g>
	<g>
		<path d="M507.118,162.382c2.993-1.501,4.882-4.555,4.882-7.901v-44.138c0-3.346-1.889-6.4-4.882-7.892L476.69,87.237V48.551
			c0-3.346-1.889-6.4-4.882-7.892l-35.31-17.655c-2.481-1.245-5.411-1.245-7.892,0l-31.364,15.682l-31.364-15.682
			c-2.481-1.245-5.411-1.245-7.892,0l-31.364,15.682l-31.364-15.682c-2.481-1.245-5.411-1.245-7.892,0L256,38.686l-31.364-15.682
			c-2.481-1.245-5.411-1.245-7.892,0l-31.364,15.682l-31.364-15.682c-2.481-1.245-5.411-1.245-7.892,0l-31.364,15.682L83.394,23.004
			c-2.481-1.245-5.411-1.245-7.892,0l-35.31,17.655c-2.993,1.492-4.882,4.546-4.882,7.892v38.687L4.882,102.452
			C1.889,103.944,0,106.998,0,110.344v44.138c0,3.346,1.889,6.4,4.882,7.901l30.429,15.214v33.227L4.882,226.038
			C1.889,227.53,0,230.584,0,233.93v44.138c0,3.346,1.889,6.4,4.882,7.901l30.429,15.214v33.227L4.882,349.624
			C1.889,351.116,0,354.17,0,357.516v44.138c0,3.346,1.889,6.4,4.882,7.901l30.429,15.214v38.678c0,3.346,1.889,6.4,4.882,7.901
			l35.31,17.655c1.236,0.618,2.595,0.927,3.946,0.927c1.351,0,2.71-0.309,3.946-0.927l31.364-15.682l31.364,15.682
			c1.236,0.618,2.595,0.927,3.946,0.927c1.351,0,2.71-0.309,3.946-0.927l31.364-15.682l31.364,15.682
			c1.236,0.618,2.595,0.927,3.946,0.927c1.351,0,2.71-0.309,3.946-0.927L256,473.321l31.364,15.682
			c1.236,0.618,2.595,0.927,3.946,0.927c1.351,0,2.71-0.309,3.946-0.927l31.364-15.682l31.364,15.682
			c1.236,0.618,2.595,0.927,3.946,0.927s2.71-0.309,3.946-0.927l31.364-15.682l31.364,15.682c1.236,0.618,2.595,0.927,3.946,0.927
			c1.351,0,2.71-0.309,3.946-0.927l35.31-17.655c2.993-1.501,4.882-4.555,4.882-7.901v-38.678l30.429-15.214
			c2.993-1.501,4.882-4.555,4.882-7.901v-44.138c0-3.346-1.889-6.4-4.882-7.892L476.69,334.41v-33.227l30.429-15.214
			c2.993-1.501,4.882-4.555,4.882-7.901V233.93c0-3.346-1.889-6.4-4.882-7.892l-30.429-15.214v-33.227L507.118,162.382z
			 M229.517,115.804L256,102.562l26.483,13.241v33.223L256,162.268l-26.483-13.241V115.804z M370.759,115.804l26.483-13.241
			l26.483,13.241v33.223l-26.483,13.241l-26.483-13.241V115.804z M300.138,239.39l26.483-13.241l26.483,13.241v33.223
			l-26.483,13.241l-26.483-13.241V239.39z M229.517,239.39L256,226.148l26.483,13.241v33.223L256,285.854l-26.483-13.241V239.39z
			 M158.897,239.39l26.483-13.241l26.483,13.241v33.223l-26.483,13.241l-26.483-13.241V239.39z M361.931,224.061l-26.483-13.241
			v-33.223l26.483-13.241l26.483,13.241v33.223L361.931,224.061z M317.793,210.819l-26.483,13.241l-26.483-13.241v-33.223
			l26.483-13.241l26.483,13.241V210.819z M247.172,210.819l-26.483,13.241l-26.483-13.241v-33.223l26.483-13.241l26.483,13.241
			V210.819z M176.552,210.819l-26.483,13.241l-26.483-13.241v-33.223l26.483-13.241l26.483,13.241V210.819z M123.586,301.183
			l26.483-13.241l26.483,13.241v33.223l-26.483,13.241l-26.483-13.241V301.183z M194.207,334.405v-33.223l26.483-13.241
			l26.483,13.241v33.223l-26.483,13.241L194.207,334.405z M264.828,301.183l26.483-13.241l26.483,13.241v33.223l-26.483,13.241
			l-26.483-13.241V301.183z M335.448,301.183l26.483-13.241l26.483,13.241v33.223l-26.483,13.241l-26.483-13.241V301.183z
			 M88.276,239.39l26.483-13.241l26.483,13.241v33.223l-26.483,13.241l-26.483-13.241V239.39z M397.241,285.854l-26.483-13.241
			V239.39l26.483-13.241l26.483,13.241v33.223L397.241,285.854z M353.103,149.026l-26.483,13.241l-26.483-13.241v-33.223
			l26.483-13.241l26.483,13.241V149.026z M211.862,149.026l-26.483,13.241l-26.483-13.241v-33.223l26.483-13.241l26.483,13.241
			V149.026z M141.241,149.026l-26.483,13.241l-26.483-13.241v-33.223l26.483-13.241l26.483,13.241V149.026z M88.276,362.976
			l26.483-13.241l26.483,13.241v33.223l-26.483,13.241l-26.483-13.241V362.976z M158.897,362.976l26.483-13.241l26.483,13.241
			v33.223l-26.483,13.241l-26.483-13.241V362.976z M229.517,362.976L256,349.735l26.483,13.241v33.223L256,409.44l-26.483-13.241
			V362.976z M300.138,362.976l26.483-13.241l26.483,13.241v33.223l-26.483,13.241l-26.483-13.241V362.976z M370.759,362.976
			l26.483-13.241l26.483,13.241v33.223l-26.483,13.241l-26.483-13.241V362.976z M79.448,164.355l26.483,13.241v33.223
			l-26.483,13.241l-26.483-13.241v-33.223L79.448,164.355z M79.448,287.941l26.483,13.241v33.223l-26.483,13.241l-26.483-13.241
			v-33.223L79.448,287.941z M459.034,334.405l-26.483,13.241l-26.483-13.241v-33.223l26.483-13.241l26.483,13.241V334.405z
			 M459.034,210.819l-26.483,13.241l-26.483-13.241v-33.223l26.483-13.241l26.483,13.241V210.819z M494.345,149.026l-26.483,13.241
			l-26.483-13.241v-33.223l26.487-13.244l26.478,13.239V149.026z M432.552,40.765l26.483,13.241v33.227l-26.483,13.241
			l-26.483-13.241V54.006L432.552,40.765z M361.931,40.765l26.483,13.241v33.227l-26.483,13.241l-26.483-13.241V54.006
			L361.931,40.765z M291.31,40.765l26.483,13.241v33.227l-26.483,13.241l-26.483-13.241V54.006L291.31,40.765z M220.69,40.765
			l26.483,13.241v33.227l-26.483,13.241l-26.483-13.241V54.006L220.69,40.765z M150.069,40.765l26.483,13.241v33.227l-26.483,13.241
			l-26.483-13.241V54.006L150.069,40.765z M52.966,54.006l26.483-13.241l26.483,13.241v33.227l-26.483,13.241L52.966,87.233V54.006z
			 M17.655,115.799l26.478-13.239l26.487,13.244v33.223l-26.483,13.241l-26.483-13.241V115.799z M17.655,239.385l26.478-13.239
			l26.487,13.244v33.223l-26.483,13.241l-26.483-13.241V239.385z M17.655,362.972l26.478-13.239l26.487,13.244v33.223L44.138,409.44
			l-26.483-13.241V362.972z M79.448,471.233l-26.483-13.241v-33.223l26.483-13.241l26.483,13.241v33.223L79.448,471.233z
			 M150.069,471.233l-26.483-13.241v-33.223l26.483-13.241l26.483,13.241v33.223L150.069,471.233z M220.69,471.233l-26.483-13.241
			v-33.223l26.483-13.241l26.483,13.241v33.223L220.69,471.233z M291.31,471.233l-26.483-13.241v-33.223l26.483-13.241
			l26.483,13.241v33.223L291.31,471.233z M361.931,471.233l-26.483-13.241v-33.223l26.483-13.241l26.483,13.241v33.223
			L361.931,471.233z M432.552,471.233l-26.483-13.241v-33.223l26.483-13.241l26.483,13.241v33.223L432.552,471.233z
			 M494.345,396.199l-26.483,13.241l-26.483-13.241v-33.223l26.487-13.244l26.478,13.239V396.199z M494.345,272.612l-26.483,13.241
			l-26.483-13.241V239.39l26.487-13.244l26.478,13.239V272.612z"/>
	</g>
</g>
</svg>