<?xml version="1.0" encoding="iso-8859-1"?>
<!-- Uploaded to: SVG Repo, www.svgrepo.com, Generator: SVG Repo Mixer Tools -->
<svg fill="#000000" height="800px" width="800px" version="1.1" id="Layer_1" xmlns="http://www.w3.org/2000/svg" xmlns:xlink="http://www.w3.org/1999/xlink" 
	 viewBox="0 0 509.498 509.498" xml:space="preserve">
<g>
	<g>
		<g>
			<path d="M281.604,126.748c-32.939,0-59.733-15.309-59.733-34.133c0-4.71-3.823-8.533-8.533-8.533
				c-4.71,0-8.533,3.823-8.533,8.533c0,29.184,33.016,51.2,76.8,51.2c4.71,0,8.533-3.823,8.533-8.533
				S286.314,126.748,281.604,126.748z"/>
			<path d="M281.604,41.415c-4.71,0-8.533,3.823-8.533,8.533s3.823,8.533,8.533,8.533c32.939,0,59.733,15.309,59.733,34.133
				c0,4.71,3.823,8.533,8.533,8.533s8.533-3.823,8.533-8.533C358.404,63.431,325.389,41.415,281.604,41.415z"/>
			<path d="M504.377,286.254l-86.238-86.238V92.616c0-47.855-59.972-85.333-136.533-85.333S145.072,44.761,145.072,92.616V305.94
				l-34.099-45.483c0.444-27.435-9.378-52.693-28.066-71.381c-19.439-19.439-45.961-29.414-74.658-28.075l-7.765,0.358l-0.367,7.765
				c-1.323,28.706,8.644,55.219,28.083,74.658c18.287,18.287,42.829,28.186,69.572,28.186c0.162,0,0.324-0.009,0.486-0.009
				l20.941,27.93l-45.099,15.027c-4.471,1.493-6.886,6.323-5.393,10.795c1.195,3.576,4.523,5.837,8.098,5.837
				c0.888,0,1.801-0.137,2.697-0.435l50.483-16.828l15.087,20.113v108.083c0,24.09,43.392,59.733,136.533,59.733
				c94.174,0,136.533-34.927,136.533-59.733V320.695l25.899,25.907c3.413,3.405,7.893,5.111,12.373,5.111
				c4.48,0,8.96-1.707,12.373-5.12l35.601-35.593C511.204,304.174,511.204,293.072,504.377,286.254z M45.326,218.269l34.79,34.79
				c-15.198-3.174-28.919-10.419-39.851-21.342c-14.174-14.174-22.221-33.007-23.108-53.683
				c20.676,0.887,39.509,8.943,53.683,23.108c10.931,10.931,18.167,24.653,21.342,39.851l-34.79-34.79
				c-3.328-3.328-8.73-3.328-12.066,0C41.998,209.539,41.998,214.941,45.326,218.269z M204.806,442.482
				c0,4.71-3.823,8.533-8.533,8.533s-8.533-3.823-8.533-8.533v-153.6c0-4.71,3.823-8.533,8.533-8.533s8.533,3.823,8.533,8.533
				V442.482z M204.806,246.216c0,4.71-3.823,8.533-8.533,8.533s-8.533-3.823-8.533-8.533v-51.2c0-4.71,3.823-8.533,8.533-8.533
				s8.533,3.823,8.533,8.533V246.216z M247.472,408.349c0,4.71-3.823,8.533-8.533,8.533s-8.533-3.823-8.533-8.533v-76.8
				c0-4.71,3.823-8.533,8.533-8.533s8.533,3.823,8.533,8.533V408.349z M247.472,288.882c0,4.71-3.823,8.533-8.533,8.533
				s-8.533-3.823-8.533-8.533v-51.2c0-4.71,3.823-8.533,8.533-8.533s8.533,3.823,8.533,8.533V288.882z M290.139,442.482
				c0,4.71-3.823,8.533-8.533,8.533c-4.71,0-8.533-3.823-8.533-8.533v-25.6c0-4.71,3.823-8.533,8.533-8.533
				c4.71,0,8.533,3.823,8.533,8.533V442.482z M290.139,374.216c0,4.71-3.823,8.533-8.533,8.533c-4.71,0-8.533-3.823-8.533-8.533
				v-76.8c0-4.71,3.823-8.533,8.533-8.533c4.71,0,8.533,3.823,8.533,8.533V374.216z M290.139,254.749
				c0,4.71-3.823,8.533-8.533,8.533c-4.71,0-8.533-3.823-8.533-8.533v-51.2c0-4.71,3.823-8.533,8.533-8.533
				c4.71,0,8.533,3.823,8.533,8.533V254.749z M332.806,408.349c0,4.71-3.823,8.533-8.533,8.533c-4.71,0-8.533-3.823-8.533-8.533
				v-76.8c0-4.71,3.823-8.533,8.533-8.533c4.71,0,8.533,3.823,8.533,8.533V408.349z M332.806,288.882
				c0,4.71-3.823,8.533-8.533,8.533c-4.71,0-8.533-3.823-8.533-8.533v-25.6c0-4.71,3.823-8.533,8.533-8.533
				c4.71,0,8.533,3.823,8.533,8.533V288.882z M332.806,220.616c0,4.71-3.823,8.533-8.533,8.533c-4.71,0-8.533-3.823-8.533-8.533
				v-25.6c0-4.71,3.823-8.533,8.533-8.533c4.71,0,8.533,3.823,8.533,8.533V220.616z M375.472,442.482
				c0,4.71-3.823,8.533-8.533,8.533s-8.533-3.823-8.533-8.533v-17.067c0-4.71,3.823-8.533,8.533-8.533s8.533,3.823,8.533,8.533
				V442.482z M375.472,382.749c0,4.71-3.823,8.533-8.533,8.533s-8.533-3.823-8.533-8.533v-93.867c0-4.71,3.823-8.533,8.533-8.533
				s8.533,3.823,8.533,8.533V382.749z M375.472,246.216c0,4.71-3.823,8.533-8.533,8.533s-8.533-3.823-8.533-8.533v-51.2
				c0-4.71,3.823-8.533,8.533-8.533s8.533,3.823,8.533,8.533V246.216z M281.606,160.882c-64.759,0-119.467-31.266-119.467-68.267
				c0-37.009,54.707-68.267,119.467-68.267c64.76,0,119.467,31.258,119.467,68.267C401.072,129.616,346.365,160.882,281.606,160.882
				z M456.104,334.527l-37.965-37.965v-72.311l74.172,74.684L456.104,334.527z"/>
		</g>
	</g>
</g>
</svg>