<?xml version="1.0" encoding="utf-8"?>
<!-- Uploaded to: SVG Repo, www.svgrepo.com, Generator: SVG Repo Mixer Tools -->
<svg fill="#000000" height="800px" width="800px" version="1.1" id="wood" xmlns="http://www.w3.org/2000/svg" xmlns:xlink="http://www.w3.org/1999/xlink" 
	 viewBox="0 0 256 256" xml:space="preserve">
<path d="M214.1,101.3V55.2h-72.8L52.1,90.6v35l-47,22.7v55.6h182.5l63.4-53.2v-49.2H214.1z M133.1,99.3v39h-8.4
	c0-1.1-0.1-2.3-0.2-3.4c-1-13.5-6.3-25.5-15-35.6H133.1z M60.3,99.3h37.9c10.8,9.4,16.9,21.9,18,36.3c0.1,0.9,0.1,1.8,0.1,2.7H99.3
	c0-0.5,0-0.9,0-1.4c-0.8-9.9-5.3-19-12.9-25.4c-7.4-6.3-16.4-9.5-25.9-9v-3.1H60.3z M60.3,110.5c7.7-0.5,14.8,2.1,20.6,7.1
	c5.9,5,9.5,12.1,10,19.9c0,0.2,0,0.5,0,0.7h-9.3c-0.4-5.2-3-9.9-6.9-13.3c-4-3.4-9-5-14.2-4.6c-0.2,0-0.1,0-0.2,0L60.3,110.5
	L60.3,110.5z M60.3,128.5c0.4-0.1,0.5-0.1,0.8-0.1c3.1-0.2,5.9,0.7,8.3,2.7c2.2,1.8,3.5,4.3,3.9,7.2h-13V128.5z M13.2,195.6v-9.3
	c0.6-0.1,1.2-0.3,1.8-0.3c3-0.2,5.9,0.7,8.3,2.7c2.2,1.8,3.6,4.1,3.9,7H13.2z M35.7,195.6c-0.4-5.2-3.1-9.7-7.1-13.1s-9-5-14.2-4.6
	c-0.4,0-0.8,0.1-1.2,0.2v-9.5c0.1,0,0.3-0.1,0.5-0.1c16-1.2,30,10.8,31.3,26.8c0,0.2,0,0.3,0,0.5C45,195.6,35.7,195.6,35.7,195.6z
	 M53.2,195.6c0-0.5,0-0.7-0.1-1.1c-1.6-20.4-19.5-35.9-39.9-34.4v-3.4h38.5c10.8,9.4,17.3,22.1,18.5,36.5c0.1,0.9,0.1,1.6,0.1,2.5
	H53.2z M78.4,192.4c-1-13.5-6.3-25.8-15-35.8H86v39h-7.4C78.5,194.5,78.5,193.6,78.4,192.4z M106.5,195.6v-9.4
	c0.5-0.1,0.7-0.2,1.3-0.2c3-0.2,5.9,0.7,8.3,2.7c2.2,1.8,3.4,4.1,3.8,7L106.5,195.6L106.5,195.6z M128,195.6
	c-0.4-5.2-2.7-9.7-6.7-13.1s-9-5-14.2-4.6c-0.3,0-0.3,0-0.7,0v-9.9c16-1.2,29.9,11.2,31.2,27.2c0,0.2,0,0.3,0,0.5
	C137.7,195.6,128,195.6,128,195.6z M145.9,195.6c0-0.5,0-0.7-0.1-1.1c-1.5-20.4-19.1-36.1-39.4-34.7v-3.1h37.9
	c10.8,9.4,17.4,22.1,18.6,36.5c0.1,0.9-0.1,1.6-0.1,2.5H145.9z M179.2,195.6H171c0-1.1,0.1-2.1,0-3.2c-1-13.5-6.7-25.8-15.4-35.8
	h23.6V195.6z"/>
</svg>