<svg width="800" height="800" viewBox="0 0 800 800" fill="currentColor" stroke="currentColor" xmlns="http://www.w3.org/2000/svg">
<path d="M400 350C427.614 350 450 372.386 450 400C450 427.614 427.614 450 400 450C372.386 450 350 427.614 350 400C350 372.386 372.386 350 400 350Z"/>
<path d="M400 0C413.807 0 425 89.5431 425 200C425 310.457 413.807 400 400 400C386.193 400 375 310.457 375 200C375 89.5431 386.193 0 400 0Z"/>
<path d="M400 450C372.386 450 350 427.614 350 400C350 372.386 372.386 350 400 350C427.614 350 450 372.386 450 400C450 427.614 427.614 450 400 450Z"/>
<path d="M400 800C386.193 800 375 710.457 375 600C375 489.543 386.193 400 400 400C413.807 400 425 489.543 425 600C425 710.457 413.807 800 400 800Z"/>
<path d="M450 400C450 427.614 427.614 450 400 450C372.386 450 350 427.614 350 400C350 372.386 372.386 350 400 350C427.614 350 450 372.386 450 400Z"/>
<path d="M800 400C800 413.807 710.457 425 600 425C489.543 425 400 413.807 400 400C400 386.193 489.543 375 600 375C710.457 375 800 386.193 800 400Z"/>
<path d="M350 400C350 372.386 372.386 350 400 350C427.614 350 450 372.386 450 400C450 427.614 427.614 450 400 450C372.386 450 350 427.614 350 400Z"/>
<path d="M0 400C0 386.193 89.5431 375 200 375C310.457 375 400 386.193 400 400C400 413.807 310.457 425 200 425C89.5431 425 0 413.807 0 400Z"/>
</svg>
