<svg width="744" height="800" viewBox="0 0 744 800" fill="none" xmlns="http://www.w3.org/2000/svg">
<path d="M371.644 350.355C399.259 350.355 421.644 372.741 421.644 400.355C421.644 427.97 399.259 450.355 371.644 450.355C344.03 450.355 321.644 427.97 321.644 400.355C321.644 372.741 344.03 350.355 371.644 350.355Z"/>
<path d="M371.644 0.355469C385.451 0.355469 396.644 89.8985 396.644 200.355C396.644 310.812 385.451 400.355 371.644 400.355C357.837 400.355 346.644 310.812 346.644 200.355C346.644 89.8985 357.837 0.355469 371.644 0.355469Z"/>
<path d="M328.753 426.054C314.946 402.14 323.14 371.56 347.054 357.753C370.969 343.946 401.549 352.14 415.356 376.054C429.163 399.969 420.969 430.548 397.054 444.355C373.14 458.163 342.56 449.969 328.753 426.054Z"/>
<path d="M25.6443 601.054C18.7407 589.097 90.6908 534.632 186.349 479.404C282.008 424.175 365.151 389.097 372.054 401.054C378.958 413.012 307.008 467.476 211.349 522.705C115.691 577.933 32.5478 613.012 25.6443 601.054Z"/>
<path d="M415.247 426.054C401.44 449.969 370.86 458.163 346.946 444.355C323.031 430.548 314.837 399.969 328.644 376.054C342.451 352.14 373.031 343.946 396.946 357.753C420.86 371.56 429.054 402.14 415.247 426.054Z"/>
<path d="M718.356 601.054C711.452 613.012 628.309 577.933 532.651 522.705C436.992 467.476 365.042 413.012 371.946 401.054C378.849 389.097 461.992 424.175 557.651 479.404C653.309 534.632 725.259 589.097 718.356 601.054Z"/>
</svg>
