<svg width="800" height="100" viewBox="0 0 800 100" fill="none" xmlns="http://www.w3.org/2000/svg">
<path d="M450 50C450 77.6142 427.614 100 400 100C372.386 100 350 77.6142 350 50C350 22.3857 372.386 -1.52588e-05 400 -1.52588e-05C427.614 -1.52588e-05 450 22.3857 450 50Z"/>
<path d="M800 50C800 63.8071 710.457 75 600 75C489.543 75 400 63.8071 400 50C400 36.1929 489.543 25 600 25C710.457 25 800 36.1929 800 50Z"/>
<path d="M350 50C350 22.3858 372.386 0 400 0C427.614 0 450 22.3858 450 50C450 77.6142 427.614 100 400 100C372.386 100 350 77.6142 350 50Z"/>
<path d="M0 50C0 36.1929 89.5431 25 200 25C310.457 25 400 36.1929 400 50C400 63.8071 310.457 75 200 75C89.5431 75 0 63.8071 0 50Z"/>
</svg>
